<?xml version="1.0" standalone="no"?>
<!DOCTYPE svg PUBLIC "-//W3C//DTD SVG 20010904//EN"
 "http://www.w3.org/TR/2001/REC-SVG-20010904/DTD/svg10.dtd">
<svg version="1.0" xmlns="http://www.w3.org/2000/svg"
 width="364.000000pt" height="434.000000pt" viewBox="0 0 364.000000 434.000000"
 preserveAspectRatio="xMidYMid meet">

<g transform="translate(0.000000,434.000000) scale(0.100000,-0.100000)"
fill="#000000" stroke="none">
<path d="M1130 4186 c-254 -110 -483 -276 -650 -468 -484 -558 -581 -1335
-249 -1988 126 -247 133 -255 896 -1020 l693 -695 325 325 c179 179 325 333
325 342 0 9 -4 20 -10 23 -5 3 -10 1 -10 -6 0 -6 -9 -1 -19 12 -11 13 -17 26
-15 28 2 3 10 -4 17 -14 13 -17 14 -17 20 -1 4 10 11 14 17 11 12 -7 8 30 -4
42 -4 5 -7 4 -6 -2 6 -28 0 -37 -15 -25 -8 7 -13 22 -11 33 1 12 -5 30 -16 41
-10 11 -18 23 -18 28 0 14 19 8 29 -10 10 -16 10 -16 11 1 0 9 -4 17 -9 17 -6
0 -8 9 -6 20 2 12 0 18 -6 15 -5 -4 -6 -11 -3 -17 5 -7 2 -8 -5 -3 -7 4 -11
16 -8 26 3 11 1 16 -5 13 -6 -4 -8 1 -4 14 6 17 2 23 -18 28 -14 3 -24 10 -21
14 3 5 -1 11 -7 13 -7 3 -4 6 6 6 20 1 20 1 1 15 -11 8 -24 12 -30 9 -5 -2 3
7 19 22 28 26 28 26 3 20 -17 -5 -26 -2 -31 10 -5 13 -2 15 14 10 11 -4 20 -2
20 4 0 6 -3 10 -7 9 -5 -2 -8 2 -8 7 0 6 3 9 7 8 4 -2 5 4 1 13 -3 9 -9 12
-12 7 -11 -15 -27 -12 -29 5 -4 38 -22 101 -38 131 -9 18 -10 27 -3 32 14 8 2
49 -14 49 -8 0 -8 -3 1 -12 17 -17 15 -29 -3 -22 -21 8 -19 44 2 44 9 0 14 3
10 6 -3 3 -34 -3 -69 -15 -161 -52 -418 -68 -589 -35 -398 75 -723 321 -903
682 -140 280 -166 629 -70 934 101 319 347 603 646 746 49 23 76 42 73 50 -4
10 0 10 18 1 20 -11 21 -11 7 5 -17 21 -22 46 -9 46 5 0 9 5 9 10 0 6 -8 10
-17 10 -15 0 -14 2 3 16 10 8 13 12 5 8 -11 -5 -13 -2 -9 13 3 12 2 27 -3 34
-7 11 -9 9 -10 -6 -1 -11 0 -27 1 -35 1 -8 -1 -12 -5 -8 -7 7 -9 17 -14 68 -1
12 -3 12 -10 2 -6 -10 -11 -9 -22 4 -8 10 -9 15 -3 11 15 -9 27 22 15 37 -4 6
-7 21 -5 34 3 14 0 21 -6 17 -6 -3 -13 1 -17 10 -3 10 -1 20 6 24 9 6 8 11 -4
21 -13 11 -14 10 -8 -6 6 -16 4 -17 -8 -7 -17 14 -24 73 -9 73 11 0 9 28 -3
48 -10 15 -27 16 -27 1 0 -5 5 -7 10 -4 6 3 10 1 10 -5 0 -7 -6 -10 -12 -7 -7
2 -13 10 -13 18 0 8 -5 17 -12 22 -14 9 -6 40 8 31 5 -3 9 0 9 5 0 15 -6 14
-90 -23z m110 -81 c-9 -11 -17 -12 -31 -4 -25 13 -24 14 12 16 26 2 29 0 19
-12z m4 -100 c3 -8 1 -15 -4 -15 -6 0 -10 7 -10 15 0 8 2 15 4 15 2 0 6 -7 10
-15z m41 -45 c3 -5 1 -10 -4 -10 -6 0 -11 5 -11 10 0 6 2 10 4 10 3 0 8 -4 11
-10z m15 -41 c0 -5 -4 -9 -8 -9 -5 0 -9 7 -9 15 0 8 4 12 9 9 4 -3 8 -9 8 -15z
m940 -2623 c0 -3 -4 -8 -10 -11 -5 -3 -10 -1 -10 4 0 6 5 11 10 11 6 0 10 -2
10 -4z m145 -356 c3 -5 1 -10 -4 -10 -6 0 -11 5 -11 10 0 6 2 10 4 10 3 0 8
-4 11 -10z"/>
<path d="M1645 3119 c-77 -38 -144 -70 -149 -72 -9 -3 11 -191 23 -214 4 -8
42 3 124 37 l117 49 0 -480 0 -479 140 0 140 0 0 615 0 615 -127 -1 -128 -1
-140 -69z"/>
<path d="M2360 1024 c0 -8 5 -12 10 -9 6 4 8 11 5 16 -9 14 -15 11 -15 -7z"/>
</g>
</svg>
