  <svg width="1038" height="757" viewBox="0 0 1038 757" fill="none" xmlns="http://www.w3.org/2000/svg">
<rect width="1038" height="757" fill="#F1F5F7"/>
<path d="M395.31 338.405H398.79C400.495 338.405 401.901 338.124 403.009 337.562C404.134 336.981 404.969 336.199 405.514 335.215C406.076 334.213 406.357 333.088 406.357 331.84C406.357 330.363 406.111 329.124 405.619 328.122C405.127 327.12 404.389 326.364 403.404 325.854C402.42 325.345 401.172 325.09 399.66 325.09C398.289 325.09 397.076 325.362 396.021 325.907C394.984 326.435 394.167 327.19 393.569 328.175C392.989 329.159 392.699 330.319 392.699 331.655H387.821C387.821 329.704 388.313 327.929 389.298 326.329C390.282 324.729 391.662 323.455 393.438 322.506C395.23 321.557 397.305 321.082 399.66 321.082C401.98 321.082 404.011 321.495 405.751 322.321C407.491 323.13 408.845 324.343 409.812 325.96C410.778 327.56 411.262 329.555 411.262 331.945C411.262 332.912 411.033 333.949 410.576 335.057C410.137 336.146 409.442 337.166 408.493 338.115C407.562 339.064 406.349 339.847 404.854 340.462C403.36 341.06 401.567 341.358 399.476 341.358H395.31V338.405ZM395.31 342.413V339.486H399.476C401.919 339.486 403.94 339.776 405.54 340.356C407.14 340.937 408.396 341.71 409.311 342.677C410.242 343.644 410.893 344.707 411.262 345.867C411.648 347.01 411.842 348.152 411.842 349.295C411.842 351.088 411.534 352.679 410.919 354.067C410.321 355.456 409.469 356.634 408.361 357.601C407.271 358.567 405.988 359.297 404.512 359.789C403.035 360.281 401.427 360.527 399.687 360.527C398.017 360.527 396.443 360.29 394.967 359.815C393.508 359.341 392.216 358.655 391.091 357.759C389.966 356.845 389.087 355.729 388.454 354.41C387.821 353.074 387.505 351.554 387.505 349.849H392.383C392.383 351.185 392.673 352.354 393.253 353.355C393.851 354.357 394.694 355.14 395.784 355.702C396.892 356.247 398.192 356.52 399.687 356.52C401.181 356.52 402.464 356.265 403.536 355.755C404.626 355.228 405.461 354.437 406.041 353.382C406.639 352.327 406.938 351 406.938 349.4C406.938 347.801 406.604 346.491 405.936 345.472C405.268 344.435 404.318 343.67 403.088 343.178C401.875 342.668 400.442 342.413 398.79 342.413H395.31ZM430.22 360H422.204L422.257 355.86H430.22C432.962 355.86 435.247 355.289 437.075 354.146C438.903 352.986 440.274 351.369 441.188 349.295C442.12 347.203 442.586 344.76 442.586 341.965V339.618C442.586 337.421 442.322 335.47 441.795 333.765C441.268 332.042 440.494 330.592 439.475 329.414C438.455 328.219 437.207 327.313 435.73 326.698C434.271 326.083 432.593 325.775 430.694 325.775H422.046V321.609H430.694C433.208 321.609 435.502 322.031 437.576 322.875C439.65 323.701 441.435 324.905 442.929 326.487C444.44 328.052 445.601 329.95 446.409 332.183C447.218 334.397 447.622 336.894 447.622 339.671V341.965C447.622 344.742 447.218 347.247 446.409 349.479C445.601 351.694 444.432 353.584 442.902 355.148C441.391 356.713 439.562 357.917 437.418 358.761C435.291 359.587 432.892 360 430.22 360ZM424.92 321.609V360H419.831V321.609H424.92ZM482.822 344.944H472.565V340.805H482.822C484.809 340.805 486.417 340.488 487.647 339.855C488.878 339.223 489.774 338.344 490.337 337.219C490.917 336.094 491.207 334.811 491.207 333.369C491.207 332.051 490.917 330.812 490.337 329.651C489.774 328.491 488.878 327.56 487.647 326.856C486.417 326.136 484.809 325.775 482.822 325.775H473.752V360H468.663V321.609H482.822C485.723 321.609 488.175 322.11 490.179 323.112C492.183 324.114 493.703 325.503 494.74 327.278C495.777 329.036 496.296 331.049 496.296 333.316C496.296 335.777 495.777 337.878 494.74 339.618C493.703 341.358 492.183 342.686 490.179 343.6C488.175 344.496 485.723 344.944 482.822 344.944ZM506.869 335.953V360H501.991V331.471H506.737L506.869 335.953ZM515.781 331.312L515.755 335.848C515.351 335.76 514.964 335.707 514.595 335.689C514.243 335.654 513.839 335.637 513.382 335.637C512.257 335.637 511.264 335.812 510.402 336.164C509.541 336.516 508.812 337.008 508.214 337.641C507.616 338.273 507.142 339.029 506.79 339.908C506.456 340.77 506.236 341.719 506.131 342.756L504.76 343.547C504.76 341.824 504.927 340.207 505.261 338.695C505.612 337.184 506.148 335.848 506.869 334.688C507.59 333.51 508.504 332.596 509.611 331.945C510.736 331.277 512.072 330.943 513.619 330.943C513.971 330.943 514.375 330.987 514.832 331.075C515.289 331.146 515.605 331.225 515.781 331.312ZM531.602 360.527C529.615 360.527 527.813 360.193 526.196 359.525C524.597 358.84 523.217 357.882 522.057 356.651C520.914 355.421 520.035 353.962 519.42 352.274C518.805 350.587 518.497 348.741 518.497 346.737V345.63C518.497 343.31 518.84 341.244 519.525 339.434C520.211 337.605 521.143 336.059 522.32 334.793C523.498 333.527 524.834 332.569 526.328 331.919C527.822 331.269 529.369 330.943 530.969 330.943C533.008 330.943 534.766 331.295 536.242 331.998C537.736 332.701 538.958 333.686 539.907 334.951C540.856 336.199 541.56 337.676 542.017 339.381C542.474 341.068 542.702 342.914 542.702 344.918V347.106H521.397V343.125H537.824V342.756C537.754 341.49 537.49 340.26 537.033 339.064C536.594 337.869 535.891 336.885 534.924 336.111C533.957 335.338 532.639 334.951 530.969 334.951C529.861 334.951 528.842 335.188 527.91 335.663C526.979 336.12 526.179 336.806 525.511 337.72C524.843 338.634 524.324 339.75 523.955 341.068C523.586 342.387 523.401 343.907 523.401 345.63V346.737C523.401 348.091 523.586 349.365 523.955 350.561C524.342 351.738 524.896 352.775 525.616 353.672C526.354 354.568 527.242 355.271 528.279 355.781C529.334 356.291 530.529 356.546 531.865 356.546C533.588 356.546 535.047 356.194 536.242 355.491C537.438 354.788 538.483 353.848 539.38 352.67L542.333 355.017C541.718 355.948 540.936 356.836 539.986 357.68C539.037 358.523 537.868 359.209 536.479 359.736C535.108 360.264 533.482 360.527 531.602 360.527ZM556.703 355.597L564.508 331.471H569.491L559.234 360H555.965L556.703 355.597ZM550.19 331.471L558.232 355.729L558.786 360H555.517L545.181 331.471H550.19ZM579.484 331.471V360H574.58V331.471H579.484ZM574.211 323.903C574.211 323.112 574.448 322.444 574.923 321.899C575.415 321.354 576.136 321.082 577.085 321.082C578.017 321.082 578.729 321.354 579.221 321.899C579.73 322.444 579.985 323.112 579.985 323.903C579.985 324.659 579.73 325.31 579.221 325.854C578.729 326.382 578.017 326.646 577.085 326.646C576.136 326.646 575.415 326.382 574.923 325.854C574.448 325.31 574.211 324.659 574.211 323.903ZM599.154 360.527C597.168 360.527 595.366 360.193 593.749 359.525C592.149 358.84 590.77 357.882 589.609 356.651C588.467 355.421 587.588 353.962 586.973 352.274C586.357 350.587 586.05 348.741 586.05 346.737V345.63C586.05 343.31 586.393 341.244 587.078 339.434C587.764 337.605 588.695 336.059 589.873 334.793C591.051 333.527 592.387 332.569 593.881 331.919C595.375 331.269 596.922 330.943 598.521 330.943C600.561 330.943 602.318 331.295 603.795 331.998C605.289 332.701 606.511 333.686 607.46 334.951C608.409 336.199 609.112 337.676 609.569 339.381C610.026 341.068 610.255 342.914 610.255 344.918V347.106H588.95V343.125H605.377V342.756C605.307 341.49 605.043 340.26 604.586 339.064C604.146 337.869 603.443 336.885 602.477 336.111C601.51 335.338 600.191 334.951 598.521 334.951C597.414 334.951 596.395 335.188 595.463 335.663C594.531 336.12 593.731 336.806 593.063 337.72C592.396 338.634 591.877 339.75 591.508 341.068C591.139 342.387 590.954 343.907 590.954 345.63V346.737C590.954 348.091 591.139 349.365 591.508 350.561C591.895 351.738 592.448 352.775 593.169 353.672C593.907 354.568 594.795 355.271 595.832 355.781C596.887 356.291 598.082 356.546 599.418 356.546C601.141 356.546 602.6 356.194 603.795 355.491C604.99 354.788 606.036 353.848 606.933 352.67L609.886 355.017C609.271 355.948 608.488 356.836 607.539 357.68C606.59 358.523 605.421 359.209 604.032 359.736C602.661 360.264 601.035 360.527 599.154 360.527ZM623.175 354.938L630.505 331.471H633.722L633.089 336.138L625.627 360H622.489L623.175 354.938ZM618.244 331.471L624.493 355.201L624.941 360H621.646L613.366 331.471H618.244ZM640.735 355.017L646.694 331.471H651.546L643.267 360H639.997L640.735 355.017ZM634.434 331.471L641.605 354.542L642.423 360H639.312L631.639 336.085L631.006 331.471H634.434Z" fill="#A0ADB4"/>
<path d="M258.074 397.688C258.074 397.289 258.012 396.938 257.887 396.633C257.77 396.32 257.559 396.039 257.254 395.789C256.957 395.539 256.543 395.301 256.012 395.074C255.488 394.848 254.824 394.617 254.02 394.383C253.176 394.133 252.414 393.855 251.734 393.551C251.055 393.238 250.473 392.883 249.988 392.484C249.504 392.086 249.133 391.629 248.875 391.113C248.617 390.598 248.488 390.008 248.488 389.344C248.488 388.68 248.625 388.066 248.898 387.504C249.172 386.941 249.562 386.453 250.07 386.039C250.586 385.617 251.199 385.289 251.91 385.055C252.621 384.82 253.414 384.703 254.289 384.703C255.57 384.703 256.656 384.949 257.547 385.441C258.445 385.926 259.129 386.562 259.598 387.352C260.066 388.133 260.301 388.969 260.301 389.859H258.051C258.051 389.219 257.914 388.652 257.641 388.16C257.367 387.66 256.953 387.27 256.398 386.988C255.844 386.699 255.141 386.555 254.289 386.555C253.484 386.555 252.82 386.676 252.297 386.918C251.773 387.16 251.383 387.488 251.125 387.902C250.875 388.316 250.75 388.789 250.75 389.32C250.75 389.68 250.824 390.008 250.973 390.305C251.129 390.594 251.367 390.863 251.688 391.113C252.016 391.363 252.43 391.594 252.93 391.805C253.438 392.016 254.043 392.219 254.746 392.414C255.715 392.688 256.551 392.992 257.254 393.328C257.957 393.664 258.535 394.043 258.988 394.465C259.449 394.879 259.789 395.352 260.008 395.883C260.234 396.406 260.348 397 260.348 397.664C260.348 398.359 260.207 398.988 259.926 399.551C259.645 400.113 259.242 400.594 258.719 400.992C258.195 401.391 257.566 401.699 256.832 401.918C256.105 402.129 255.293 402.234 254.395 402.234C253.605 402.234 252.828 402.125 252.062 401.906C251.305 401.688 250.613 401.359 249.988 400.922C249.371 400.484 248.875 399.945 248.5 399.305C248.133 398.656 247.949 397.906 247.949 397.055H250.199C250.199 397.641 250.312 398.145 250.539 398.566C250.766 398.98 251.074 399.324 251.465 399.598C251.863 399.871 252.312 400.074 252.812 400.207C253.32 400.332 253.848 400.395 254.395 400.395C255.184 400.395 255.852 400.285 256.398 400.066C256.945 399.848 257.359 399.535 257.641 399.129C257.93 398.723 258.074 398.242 258.074 397.688ZM268.164 402.234C267.281 402.234 266.48 402.086 265.762 401.789C265.051 401.484 264.438 401.059 263.922 400.512C263.414 399.965 263.023 399.316 262.75 398.566C262.477 397.816 262.34 396.996 262.34 396.105V395.613C262.34 394.582 262.492 393.664 262.797 392.859C263.102 392.047 263.516 391.359 264.039 390.797C264.562 390.234 265.156 389.809 265.82 389.52C266.484 389.23 267.172 389.086 267.883 389.086C268.789 389.086 269.57 389.242 270.227 389.555C270.891 389.867 271.434 390.305 271.855 390.867C272.277 391.422 272.59 392.078 272.793 392.836C272.996 393.586 273.098 394.406 273.098 395.297V396.27H263.629V394.5H270.93V394.336C270.898 393.773 270.781 393.227 270.578 392.695C270.383 392.164 270.07 391.727 269.641 391.383C269.211 391.039 268.625 390.867 267.883 390.867C267.391 390.867 266.938 390.973 266.523 391.184C266.109 391.387 265.754 391.691 265.457 392.098C265.16 392.504 264.93 393 264.766 393.586C264.602 394.172 264.52 394.848 264.52 395.613V396.105C264.52 396.707 264.602 397.273 264.766 397.805C264.938 398.328 265.184 398.789 265.504 399.188C265.832 399.586 266.227 399.898 266.688 400.125C267.156 400.352 267.688 400.465 268.281 400.465C269.047 400.465 269.695 400.309 270.227 399.996C270.758 399.684 271.223 399.266 271.621 398.742L272.934 399.785C272.66 400.199 272.312 400.594 271.891 400.969C271.469 401.344 270.949 401.648 270.332 401.883C269.723 402.117 269 402.234 268.164 402.234ZM277.984 384V402H275.805V384H277.984ZM286.727 402.234C285.844 402.234 285.043 402.086 284.324 401.789C283.613 401.484 283 401.059 282.484 400.512C281.977 399.965 281.586 399.316 281.312 398.566C281.039 397.816 280.902 396.996 280.902 396.105V395.613C280.902 394.582 281.055 393.664 281.359 392.859C281.664 392.047 282.078 391.359 282.602 390.797C283.125 390.234 283.719 389.809 284.383 389.52C285.047 389.23 285.734 389.086 286.445 389.086C287.352 389.086 288.133 389.242 288.789 389.555C289.453 389.867 289.996 390.305 290.418 390.867C290.84 391.422 291.152 392.078 291.355 392.836C291.559 393.586 291.66 394.406 291.66 395.297V396.27H282.191V394.5H289.492V394.336C289.461 393.773 289.344 393.227 289.141 392.695C288.945 392.164 288.633 391.727 288.203 391.383C287.773 391.039 287.188 390.867 286.445 390.867C285.953 390.867 285.5 390.973 285.086 391.184C284.672 391.387 284.316 391.691 284.02 392.098C283.723 392.504 283.492 393 283.328 393.586C283.164 394.172 283.082 394.848 283.082 395.613V396.105C283.082 396.707 283.164 397.273 283.328 397.805C283.5 398.328 283.746 398.789 284.066 399.188C284.395 399.586 284.789 399.898 285.25 400.125C285.719 400.352 286.25 400.465 286.844 400.465C287.609 400.465 288.258 400.309 288.789 399.996C289.32 399.684 289.785 399.266 290.184 398.742L291.496 399.785C291.223 400.199 290.875 400.594 290.453 400.969C290.031 401.344 289.512 401.648 288.895 401.883C288.285 402.117 287.562 402.234 286.727 402.234ZM299.266 400.453C299.781 400.453 300.258 400.348 300.695 400.137C301.133 399.926 301.492 399.637 301.773 399.27C302.055 398.895 302.215 398.469 302.254 397.992H304.316C304.277 398.742 304.023 399.441 303.555 400.09C303.094 400.73 302.488 401.25 301.738 401.648C300.988 402.039 300.164 402.234 299.266 402.234C298.312 402.234 297.48 402.066 296.77 401.73C296.066 401.395 295.48 400.934 295.012 400.348C294.551 399.762 294.203 399.09 293.969 398.332C293.742 397.566 293.629 396.758 293.629 395.906V395.414C293.629 394.562 293.742 393.758 293.969 393C294.203 392.234 294.551 391.559 295.012 390.973C295.48 390.387 296.066 389.926 296.77 389.59C297.48 389.254 298.312 389.086 299.266 389.086C300.258 389.086 301.125 389.289 301.867 389.695C302.609 390.094 303.191 390.641 303.613 391.336C304.043 392.023 304.277 392.805 304.316 393.68H302.254C302.215 393.156 302.066 392.684 301.809 392.262C301.559 391.84 301.215 391.504 300.777 391.254C300.348 390.996 299.844 390.867 299.266 390.867C298.602 390.867 298.043 391 297.59 391.266C297.145 391.523 296.789 391.875 296.523 392.32C296.266 392.758 296.078 393.246 295.961 393.785C295.852 394.316 295.797 394.859 295.797 395.414V395.906C295.797 396.461 295.852 397.008 295.961 397.547C296.07 398.086 296.254 398.574 296.512 399.012C296.777 399.449 297.133 399.801 297.578 400.066C298.031 400.324 298.594 400.453 299.266 400.453ZM312.062 389.32V390.984H305.207V389.32H312.062ZM307.527 386.238H309.695V398.859C309.695 399.289 309.762 399.613 309.895 399.832C310.027 400.051 310.199 400.195 310.41 400.266C310.621 400.336 310.848 400.371 311.09 400.371C311.27 400.371 311.457 400.355 311.652 400.324C311.855 400.285 312.008 400.254 312.109 400.23L312.121 402C311.949 402.055 311.723 402.105 311.441 402.152C311.168 402.207 310.836 402.234 310.445 402.234C309.914 402.234 309.426 402.129 308.98 401.918C308.535 401.707 308.18 401.355 307.914 400.863C307.656 400.363 307.527 399.691 307.527 398.848V386.238ZM322.727 391.758V406.875H320.547V389.32H322.539L322.727 391.758ZM331.27 395.555V395.801C331.27 396.723 331.16 397.578 330.941 398.367C330.723 399.148 330.402 399.828 329.98 400.406C329.566 400.984 329.055 401.434 328.445 401.754C327.836 402.074 327.137 402.234 326.348 402.234C325.543 402.234 324.832 402.102 324.215 401.836C323.598 401.57 323.074 401.184 322.645 400.676C322.215 400.168 321.871 399.559 321.613 398.848C321.363 398.137 321.191 397.336 321.098 396.445V395.133C321.191 394.195 321.367 393.355 321.625 392.613C321.883 391.871 322.223 391.238 322.645 390.715C323.074 390.184 323.594 389.781 324.203 389.508C324.812 389.227 325.516 389.086 326.312 389.086C327.109 389.086 327.816 389.242 328.434 389.555C329.051 389.859 329.57 390.297 329.992 390.867C330.414 391.438 330.73 392.121 330.941 392.918C331.16 393.707 331.27 394.586 331.27 395.555ZM329.09 395.801V395.555C329.09 394.922 329.023 394.328 328.891 393.773C328.758 393.211 328.551 392.719 328.27 392.297C327.996 391.867 327.645 391.531 327.215 391.289C326.785 391.039 326.273 390.914 325.68 390.914C325.133 390.914 324.656 391.008 324.25 391.195C323.852 391.383 323.512 391.637 323.23 391.957C322.949 392.27 322.719 392.629 322.539 393.035C322.367 393.434 322.238 393.848 322.152 394.277V397.312C322.309 397.859 322.527 398.375 322.809 398.859C323.09 399.336 323.465 399.723 323.934 400.02C324.402 400.309 324.992 400.453 325.703 400.453C326.289 400.453 326.793 400.332 327.215 400.09C327.645 399.84 327.996 399.5 328.27 399.07C328.551 398.641 328.758 398.148 328.891 397.594C329.023 397.031 329.09 396.434 329.09 395.801ZM336.203 391.312V402H334.035V389.32H336.145L336.203 391.312ZM340.164 389.25L340.152 391.266C339.973 391.227 339.801 391.203 339.637 391.195C339.48 391.18 339.301 391.172 339.098 391.172C338.598 391.172 338.156 391.25 337.773 391.406C337.391 391.562 337.066 391.781 336.801 392.062C336.535 392.344 336.324 392.68 336.168 393.07C336.02 393.453 335.922 393.875 335.875 394.336L335.266 394.688C335.266 393.922 335.34 393.203 335.488 392.531C335.645 391.859 335.883 391.266 336.203 390.75C336.523 390.227 336.93 389.82 337.422 389.531C337.922 389.234 338.516 389.086 339.203 389.086C339.359 389.086 339.539 389.105 339.742 389.145C339.945 389.176 340.086 389.211 340.164 389.25ZM341.359 395.801V395.531C341.359 394.617 341.492 393.77 341.758 392.988C342.023 392.199 342.406 391.516 342.906 390.938C343.406 390.352 344.012 389.898 344.723 389.578C345.434 389.25 346.23 389.086 347.113 389.086C348.004 389.086 348.805 389.25 349.516 389.578C350.234 389.898 350.844 390.352 351.344 390.938C351.852 391.516 352.238 392.199 352.504 392.988C352.77 393.77 352.902 394.617 352.902 395.531V395.801C352.902 396.715 352.77 397.562 352.504 398.344C352.238 399.125 351.852 399.809 351.344 400.395C350.844 400.973 350.238 401.426 349.527 401.754C348.824 402.074 348.027 402.234 347.137 402.234C346.246 402.234 345.445 402.074 344.734 401.754C344.023 401.426 343.414 400.973 342.906 400.395C342.406 399.809 342.023 399.125 341.758 398.344C341.492 397.562 341.359 396.715 341.359 395.801ZM343.527 395.531V395.801C343.527 396.434 343.602 397.031 343.75 397.594C343.898 398.148 344.121 398.641 344.418 399.07C344.723 399.5 345.102 399.84 345.555 400.09C346.008 400.332 346.535 400.453 347.137 400.453C347.73 400.453 348.25 400.332 348.695 400.09C349.148 399.84 349.523 399.5 349.82 399.07C350.117 398.641 350.34 398.148 350.488 397.594C350.645 397.031 350.723 396.434 350.723 395.801V395.531C350.723 394.906 350.645 394.316 350.488 393.762C350.34 393.199 350.113 392.703 349.809 392.273C349.512 391.836 349.137 391.492 348.684 391.242C348.238 390.992 347.715 390.867 347.113 390.867C346.52 390.867 345.996 390.992 345.543 391.242C345.098 391.492 344.723 391.836 344.418 392.273C344.121 392.703 343.898 393.199 343.75 393.762C343.602 394.316 343.527 394.906 343.527 395.531ZM357.789 391.758V406.875H355.609V389.32H357.602L357.789 391.758ZM366.332 395.555V395.801C366.332 396.723 366.223 397.578 366.004 398.367C365.785 399.148 365.465 399.828 365.043 400.406C364.629 400.984 364.117 401.434 363.508 401.754C362.898 402.074 362.199 402.234 361.41 402.234C360.605 402.234 359.895 402.102 359.277 401.836C358.66 401.57 358.137 401.184 357.707 400.676C357.277 400.168 356.934 399.559 356.676 398.848C356.426 398.137 356.254 397.336 356.16 396.445V395.133C356.254 394.195 356.43 393.355 356.688 392.613C356.945 391.871 357.285 391.238 357.707 390.715C358.137 390.184 358.656 389.781 359.266 389.508C359.875 389.227 360.578 389.086 361.375 389.086C362.172 389.086 362.879 389.242 363.496 389.555C364.113 389.859 364.633 390.297 365.055 390.867C365.477 391.438 365.793 392.121 366.004 392.918C366.223 393.707 366.332 394.586 366.332 395.555ZM364.152 395.801V395.555C364.152 394.922 364.086 394.328 363.953 393.773C363.82 393.211 363.613 392.719 363.332 392.297C363.059 391.867 362.707 391.531 362.277 391.289C361.848 391.039 361.336 390.914 360.742 390.914C360.195 390.914 359.719 391.008 359.312 391.195C358.914 391.383 358.574 391.637 358.293 391.957C358.012 392.27 357.781 392.629 357.602 393.035C357.43 393.434 357.301 393.848 357.215 394.277V397.312C357.371 397.859 357.59 398.375 357.871 398.859C358.152 399.336 358.527 399.723 358.996 400.02C359.465 400.309 360.055 400.453 360.766 400.453C361.352 400.453 361.855 400.332 362.277 400.09C362.707 399.84 363.059 399.5 363.332 399.07C363.613 398.641 363.82 398.148 363.953 397.594C364.086 397.031 364.152 396.434 364.152 395.801ZM374.359 402.234C373.477 402.234 372.676 402.086 371.957 401.789C371.246 401.484 370.633 401.059 370.117 400.512C369.609 399.965 369.219 399.316 368.945 398.566C368.672 397.816 368.535 396.996 368.535 396.105V395.613C368.535 394.582 368.688 393.664 368.992 392.859C369.297 392.047 369.711 391.359 370.234 390.797C370.758 390.234 371.352 389.809 372.016 389.52C372.68 389.23 373.367 389.086 374.078 389.086C374.984 389.086 375.766 389.242 376.422 389.555C377.086 389.867 377.629 390.305 378.051 390.867C378.473 391.422 378.785 392.078 378.988 392.836C379.191 393.586 379.293 394.406 379.293 395.297V396.27H369.824V394.5H377.125V394.336C377.094 393.773 376.977 393.227 376.773 392.695C376.578 392.164 376.266 391.727 375.836 391.383C375.406 391.039 374.82 390.867 374.078 390.867C373.586 390.867 373.133 390.973 372.719 391.184C372.305 391.387 371.949 391.691 371.652 392.098C371.355 392.504 371.125 393 370.961 393.586C370.797 394.172 370.715 394.848 370.715 395.613V396.105C370.715 396.707 370.797 397.273 370.961 397.805C371.133 398.328 371.379 398.789 371.699 399.188C372.027 399.586 372.422 399.898 372.883 400.125C373.352 400.352 373.883 400.465 374.477 400.465C375.242 400.465 375.891 400.309 376.422 399.996C376.953 399.684 377.418 399.266 377.816 398.742L379.129 399.785C378.855 400.199 378.508 400.594 378.086 400.969C377.664 401.344 377.145 401.648 376.527 401.883C375.918 402.117 375.195 402.234 374.359 402.234ZM383.992 391.312V402H381.824V389.32H383.934L383.992 391.312ZM387.953 389.25L387.941 391.266C387.762 391.227 387.59 391.203 387.426 391.195C387.27 391.18 387.09 391.172 386.887 391.172C386.387 391.172 385.945 391.25 385.562 391.406C385.18 391.562 384.855 391.781 384.59 392.062C384.324 392.344 384.113 392.68 383.957 393.07C383.809 393.453 383.711 393.875 383.664 394.336L383.055 394.688C383.055 393.922 383.129 393.203 383.277 392.531C383.434 391.859 383.672 391.266 383.992 390.75C384.312 390.227 384.719 389.82 385.211 389.531C385.711 389.234 386.305 389.086 386.992 389.086C387.148 389.086 387.328 389.105 387.531 389.145C387.734 389.176 387.875 389.211 387.953 389.25ZM395.852 389.32V390.984H388.996V389.32H395.852ZM391.316 386.238H393.484V398.859C393.484 399.289 393.551 399.613 393.684 399.832C393.816 400.051 393.988 400.195 394.199 400.266C394.41 400.336 394.637 400.371 394.879 400.371C395.059 400.371 395.246 400.355 395.441 400.324C395.645 400.285 395.797 400.254 395.898 400.23L395.91 402C395.738 402.055 395.512 402.105 395.23 402.152C394.957 402.207 394.625 402.234 394.234 402.234C393.703 402.234 393.215 402.129 392.77 401.918C392.324 401.707 391.969 401.355 391.703 400.863C391.445 400.363 391.316 399.691 391.316 398.848V386.238ZM401.957 400.688L405.484 389.32H407.805L402.719 403.957C402.602 404.27 402.445 404.605 402.25 404.965C402.062 405.332 401.82 405.68 401.523 406.008C401.227 406.336 400.867 406.602 400.445 406.805C400.031 407.016 399.535 407.121 398.957 407.121C398.785 407.121 398.566 407.098 398.301 407.051C398.035 407.004 397.848 406.965 397.738 406.934L397.727 405.176C397.789 405.184 397.887 405.191 398.02 405.199C398.16 405.215 398.258 405.223 398.312 405.223C398.805 405.223 399.223 405.156 399.566 405.023C399.91 404.898 400.199 404.684 400.434 404.379C400.676 404.082 400.883 403.672 401.055 403.148L401.957 400.688ZM399.367 389.32L402.66 399.164L403.223 401.449L401.664 402.246L397 389.32H399.367ZM423.191 399.832V393.305C423.191 392.805 423.09 392.371 422.887 392.004C422.691 391.629 422.395 391.34 421.996 391.137C421.598 390.934 421.105 390.832 420.52 390.832C419.973 390.832 419.492 390.926 419.078 391.113C418.672 391.301 418.352 391.547 418.117 391.852C417.891 392.156 417.777 392.484 417.777 392.836H415.609C415.609 392.383 415.727 391.934 415.961 391.488C416.195 391.043 416.531 390.641 416.969 390.281C417.414 389.914 417.945 389.625 418.562 389.414C419.188 389.195 419.883 389.086 420.648 389.086C421.57 389.086 422.383 389.242 423.086 389.555C423.797 389.867 424.352 390.34 424.75 390.973C425.156 391.598 425.359 392.383 425.359 393.328V399.234C425.359 399.656 425.395 400.105 425.465 400.582C425.543 401.059 425.656 401.469 425.805 401.812V402H423.543C423.434 401.75 423.348 401.418 423.285 401.004C423.223 400.582 423.191 400.191 423.191 399.832ZM423.566 394.312L423.59 395.836H421.398C420.781 395.836 420.23 395.887 419.746 395.988C419.262 396.082 418.855 396.227 418.527 396.422C418.199 396.617 417.949 396.863 417.777 397.16C417.605 397.449 417.52 397.789 417.52 398.18C417.52 398.578 417.609 398.941 417.789 399.27C417.969 399.598 418.238 399.859 418.598 400.055C418.965 400.242 419.414 400.336 419.945 400.336C420.609 400.336 421.195 400.195 421.703 399.914C422.211 399.633 422.613 399.289 422.91 398.883C423.215 398.477 423.379 398.082 423.402 397.699L424.328 398.742C424.273 399.07 424.125 399.434 423.883 399.832C423.641 400.23 423.316 400.613 422.91 400.98C422.512 401.34 422.035 401.641 421.48 401.883C420.934 402.117 420.316 402.234 419.629 402.234C418.77 402.234 418.016 402.066 417.367 401.73C416.727 401.395 416.227 400.945 415.867 400.383C415.516 399.812 415.34 399.176 415.34 398.473C415.34 397.793 415.473 397.195 415.738 396.68C416.004 396.156 416.387 395.723 416.887 395.379C417.387 395.027 417.988 394.762 418.691 394.582C419.395 394.402 420.18 394.312 421.047 394.312H423.566ZM430.938 392.027V402H428.77V389.32H430.82L430.938 392.027ZM430.422 395.18L429.52 395.145C429.527 394.277 429.656 393.477 429.906 392.742C430.156 392 430.508 391.355 430.961 390.809C431.414 390.262 431.953 389.84 432.578 389.543C433.211 389.238 433.91 389.086 434.676 389.086C435.301 389.086 435.863 389.172 436.363 389.344C436.863 389.508 437.289 389.773 437.641 390.141C438 390.508 438.273 390.984 438.461 391.57C438.648 392.148 438.742 392.855 438.742 393.691V402H436.562V393.668C436.562 393.004 436.465 392.473 436.27 392.074C436.074 391.668 435.789 391.375 435.414 391.195C435.039 391.008 434.578 390.914 434.031 390.914C433.492 390.914 433 391.027 432.555 391.254C432.117 391.48 431.738 391.793 431.418 392.191C431.105 392.59 430.859 393.047 430.68 393.562C430.508 394.07 430.422 394.609 430.422 395.18ZM450.027 399.539V384H452.207V402H450.215L450.027 399.539ZM441.496 395.801V395.555C441.496 394.586 441.613 393.707 441.848 392.918C442.09 392.121 442.43 391.438 442.867 390.867C443.312 390.297 443.84 389.859 444.449 389.555C445.066 389.242 445.754 389.086 446.512 389.086C447.309 389.086 448.004 389.227 448.598 389.508C449.199 389.781 449.707 390.184 450.121 390.715C450.543 391.238 450.875 391.871 451.117 392.613C451.359 393.355 451.527 394.195 451.621 395.133V396.211C451.535 397.141 451.367 397.977 451.117 398.719C450.875 399.461 450.543 400.094 450.121 400.617C449.707 401.141 449.199 401.543 448.598 401.824C447.996 402.098 447.293 402.234 446.488 402.234C445.746 402.234 445.066 402.074 444.449 401.754C443.84 401.434 443.312 400.984 442.867 400.406C442.43 399.828 442.09 399.148 441.848 398.367C441.613 397.578 441.496 396.723 441.496 395.801ZM443.676 395.555V395.801C443.676 396.434 443.738 397.027 443.863 397.582C443.996 398.137 444.199 398.625 444.473 399.047C444.746 399.469 445.094 399.801 445.516 400.043C445.938 400.277 446.441 400.395 447.027 400.395C447.746 400.395 448.336 400.242 448.797 399.938C449.266 399.633 449.641 399.23 449.922 398.73C450.203 398.23 450.422 397.688 450.578 397.102V394.277C450.484 393.848 450.348 393.434 450.168 393.035C449.996 392.629 449.77 392.27 449.488 391.957C449.215 391.637 448.875 391.383 448.469 391.195C448.07 391.008 447.598 390.914 447.051 390.914C446.457 390.914 445.945 391.039 445.516 391.289C445.094 391.531 444.746 391.867 444.473 392.297C444.199 392.719 443.996 393.211 443.863 393.773C443.738 394.328 443.676 394.922 443.676 395.555ZM469.012 399.832V393.305C469.012 392.805 468.91 392.371 468.707 392.004C468.512 391.629 468.215 391.34 467.816 391.137C467.418 390.934 466.926 390.832 466.34 390.832C465.793 390.832 465.312 390.926 464.898 391.113C464.492 391.301 464.172 391.547 463.938 391.852C463.711 392.156 463.598 392.484 463.598 392.836H461.43C461.43 392.383 461.547 391.934 461.781 391.488C462.016 391.043 462.352 390.641 462.789 390.281C463.234 389.914 463.766 389.625 464.383 389.414C465.008 389.195 465.703 389.086 466.469 389.086C467.391 389.086 468.203 389.242 468.906 389.555C469.617 389.867 470.172 390.34 470.57 390.973C470.977 391.598 471.18 392.383 471.18 393.328V399.234C471.18 399.656 471.215 400.105 471.285 400.582C471.363 401.059 471.477 401.469 471.625 401.812V402H469.363C469.254 401.75 469.168 401.418 469.105 401.004C469.043 400.582 469.012 400.191 469.012 399.832ZM469.387 394.312L469.41 395.836H467.219C466.602 395.836 466.051 395.887 465.566 395.988C465.082 396.082 464.676 396.227 464.348 396.422C464.02 396.617 463.77 396.863 463.598 397.16C463.426 397.449 463.34 397.789 463.34 398.18C463.34 398.578 463.43 398.941 463.609 399.27C463.789 399.598 464.059 399.859 464.418 400.055C464.785 400.242 465.234 400.336 465.766 400.336C466.43 400.336 467.016 400.195 467.523 399.914C468.031 399.633 468.434 399.289 468.73 398.883C469.035 398.477 469.199 398.082 469.223 397.699L470.148 398.742C470.094 399.07 469.945 399.434 469.703 399.832C469.461 400.23 469.137 400.613 468.73 400.98C468.332 401.34 467.855 401.641 467.301 401.883C466.754 402.117 466.137 402.234 465.449 402.234C464.59 402.234 463.836 402.066 463.188 401.73C462.547 401.395 462.047 400.945 461.688 400.383C461.336 399.812 461.16 399.176 461.16 398.473C461.16 397.793 461.293 397.195 461.559 396.68C461.824 396.156 462.207 395.723 462.707 395.379C463.207 395.027 463.809 394.762 464.512 394.582C465.215 394.402 466 394.312 466.867 394.312H469.387ZM482.582 399.539V384H484.762V402H482.77L482.582 399.539ZM474.051 395.801V395.555C474.051 394.586 474.168 393.707 474.402 392.918C474.645 392.121 474.984 391.438 475.422 390.867C475.867 390.297 476.395 389.859 477.004 389.555C477.621 389.242 478.309 389.086 479.066 389.086C479.863 389.086 480.559 389.227 481.152 389.508C481.754 389.781 482.262 390.184 482.676 390.715C483.098 391.238 483.43 391.871 483.672 392.613C483.914 393.355 484.082 394.195 484.176 395.133V396.211C484.09 397.141 483.922 397.977 483.672 398.719C483.43 399.461 483.098 400.094 482.676 400.617C482.262 401.141 481.754 401.543 481.152 401.824C480.551 402.098 479.848 402.234 479.043 402.234C478.301 402.234 477.621 402.074 477.004 401.754C476.395 401.434 475.867 400.984 475.422 400.406C474.984 399.828 474.645 399.148 474.402 398.367C474.168 397.578 474.051 396.723 474.051 395.801ZM476.23 395.555V395.801C476.23 396.434 476.293 397.027 476.418 397.582C476.551 398.137 476.754 398.625 477.027 399.047C477.301 399.469 477.648 399.801 478.07 400.043C478.492 400.277 478.996 400.395 479.582 400.395C480.301 400.395 480.891 400.242 481.352 399.938C481.82 399.633 482.195 399.23 482.477 398.73C482.758 398.23 482.977 397.688 483.133 397.102V394.277C483.039 393.848 482.902 393.434 482.723 393.035C482.551 392.629 482.324 392.27 482.043 391.957C481.77 391.637 481.43 391.383 481.023 391.195C480.625 391.008 480.152 390.914 479.605 390.914C479.012 390.914 478.5 391.039 478.07 391.289C477.648 391.531 477.301 391.867 477.027 392.297C476.754 392.719 476.551 393.211 476.418 393.773C476.293 394.328 476.23 394.922 476.23 395.555ZM496.129 399.539V384H498.309V402H496.316L496.129 399.539ZM487.598 395.801V395.555C487.598 394.586 487.715 393.707 487.949 392.918C488.191 392.121 488.531 391.438 488.969 390.867C489.414 390.297 489.941 389.859 490.551 389.555C491.168 389.242 491.855 389.086 492.613 389.086C493.41 389.086 494.105 389.227 494.699 389.508C495.301 389.781 495.809 390.184 496.223 390.715C496.645 391.238 496.977 391.871 497.219 392.613C497.461 393.355 497.629 394.195 497.723 395.133V396.211C497.637 397.141 497.469 397.977 497.219 398.719C496.977 399.461 496.645 400.094 496.223 400.617C495.809 401.141 495.301 401.543 494.699 401.824C494.098 402.098 493.395 402.234 492.59 402.234C491.848 402.234 491.168 402.074 490.551 401.754C489.941 401.434 489.414 400.984 488.969 400.406C488.531 399.828 488.191 399.148 487.949 398.367C487.715 397.578 487.598 396.723 487.598 395.801ZM489.777 395.555V395.801C489.777 396.434 489.84 397.027 489.965 397.582C490.098 398.137 490.301 398.625 490.574 399.047C490.848 399.469 491.195 399.801 491.617 400.043C492.039 400.277 492.543 400.395 493.129 400.395C493.848 400.395 494.438 400.242 494.898 399.938C495.367 399.633 495.742 399.23 496.023 398.73C496.305 398.23 496.523 397.688 496.68 397.102V394.277C496.586 393.848 496.449 393.434 496.27 393.035C496.098 392.629 495.871 392.27 495.59 391.957C495.316 391.637 494.977 391.383 494.57 391.195C494.172 391.008 493.699 390.914 493.152 390.914C492.559 390.914 492.047 391.039 491.617 391.289C491.195 391.531 490.848 391.867 490.574 392.297C490.301 392.719 490.098 393.211 489.965 393.773C489.84 394.328 489.777 394.922 489.777 395.555ZM509.793 391.84V402H507.613V389.32H509.676L509.793 391.84ZM509.348 395.18L508.34 395.145C508.348 394.277 508.461 393.477 508.68 392.742C508.898 392 509.223 391.355 509.652 390.809C510.082 390.262 510.617 389.84 511.258 389.543C511.898 389.238 512.641 389.086 513.484 389.086C514.078 389.086 514.625 389.172 515.125 389.344C515.625 389.508 516.059 389.77 516.426 390.129C516.793 390.488 517.078 390.949 517.281 391.512C517.484 392.074 517.586 392.754 517.586 393.551V402H515.418V393.656C515.418 392.992 515.305 392.461 515.078 392.062C514.859 391.664 514.547 391.375 514.141 391.195C513.734 391.008 513.258 390.914 512.711 390.914C512.07 390.914 511.535 391.027 511.105 391.254C510.676 391.48 510.332 391.793 510.074 392.191C509.816 392.59 509.629 393.047 509.512 393.562C509.402 394.07 509.348 394.609 509.348 395.18ZM517.562 393.984L516.109 394.43C516.117 393.734 516.23 393.066 516.449 392.426C516.676 391.785 517 391.215 517.422 390.715C517.852 390.215 518.379 389.82 519.004 389.531C519.629 389.234 520.344 389.086 521.148 389.086C521.828 389.086 522.43 389.176 522.953 389.355C523.484 389.535 523.93 389.812 524.289 390.188C524.656 390.555 524.934 391.027 525.121 391.605C525.309 392.184 525.402 392.871 525.402 393.668V402H523.223V393.645C523.223 392.934 523.109 392.383 522.883 391.992C522.664 391.594 522.352 391.316 521.945 391.16C521.547 390.996 521.07 390.914 520.516 390.914C520.039 390.914 519.617 390.996 519.25 391.16C518.883 391.324 518.574 391.551 518.324 391.84C518.074 392.121 517.883 392.445 517.75 392.812C517.625 393.18 517.562 393.57 517.562 393.984ZM528.109 395.801V395.531C528.109 394.617 528.242 393.77 528.508 392.988C528.773 392.199 529.156 391.516 529.656 390.938C530.156 390.352 530.762 389.898 531.473 389.578C532.184 389.25 532.98 389.086 533.863 389.086C534.754 389.086 535.555 389.25 536.266 389.578C536.984 389.898 537.594 390.352 538.094 390.938C538.602 391.516 538.988 392.199 539.254 392.988C539.52 393.77 539.652 394.617 539.652 395.531V395.801C539.652 396.715 539.52 397.562 539.254 398.344C538.988 399.125 538.602 399.809 538.094 400.395C537.594 400.973 536.988 401.426 536.277 401.754C535.574 402.074 534.777 402.234 533.887 402.234C532.996 402.234 532.195 402.074 531.484 401.754C530.773 401.426 530.164 400.973 529.656 400.395C529.156 399.809 528.773 399.125 528.508 398.344C528.242 397.562 528.109 396.715 528.109 395.801ZM530.277 395.531V395.801C530.277 396.434 530.352 397.031 530.5 397.594C530.648 398.148 530.871 398.641 531.168 399.07C531.473 399.5 531.852 399.84 532.305 400.09C532.758 400.332 533.285 400.453 533.887 400.453C534.48 400.453 535 400.332 535.445 400.09C535.898 399.84 536.273 399.5 536.57 399.07C536.867 398.641 537.09 398.148 537.238 397.594C537.395 397.031 537.473 396.434 537.473 395.801V395.531C537.473 394.906 537.395 394.316 537.238 393.762C537.09 393.199 536.863 392.703 536.559 392.273C536.262 391.836 535.887 391.492 535.434 391.242C534.988 390.992 534.465 390.867 533.863 390.867C533.27 390.867 532.746 390.992 532.293 391.242C531.848 391.492 531.473 391.836 531.168 392.273C530.871 392.703 530.648 393.199 530.5 393.762C530.352 394.316 530.277 394.906 530.277 395.531ZM550.363 399.539V384H552.543V402H550.551L550.363 399.539ZM541.832 395.801V395.555C541.832 394.586 541.949 393.707 542.184 392.918C542.426 392.121 542.766 391.438 543.203 390.867C543.648 390.297 544.176 389.859 544.785 389.555C545.402 389.242 546.09 389.086 546.848 389.086C547.645 389.086 548.34 389.227 548.934 389.508C549.535 389.781 550.043 390.184 550.457 390.715C550.879 391.238 551.211 391.871 551.453 392.613C551.695 393.355 551.863 394.195 551.957 395.133V396.211C551.871 397.141 551.703 397.977 551.453 398.719C551.211 399.461 550.879 400.094 550.457 400.617C550.043 401.141 549.535 401.543 548.934 401.824C548.332 402.098 547.629 402.234 546.824 402.234C546.082 402.234 545.402 402.074 544.785 401.754C544.176 401.434 543.648 400.984 543.203 400.406C542.766 399.828 542.426 399.148 542.184 398.367C541.949 397.578 541.832 396.723 541.832 395.801ZM544.012 395.555V395.801C544.012 396.434 544.074 397.027 544.199 397.582C544.332 398.137 544.535 398.625 544.809 399.047C545.082 399.469 545.43 399.801 545.852 400.043C546.273 400.277 546.777 400.395 547.363 400.395C548.082 400.395 548.672 400.242 549.133 399.938C549.602 399.633 549.977 399.23 550.258 398.73C550.539 398.23 550.758 397.688 550.914 397.102V394.277C550.82 393.848 550.684 393.434 550.504 393.035C550.332 392.629 550.105 392.27 549.824 391.957C549.551 391.637 549.211 391.383 548.805 391.195C548.406 391.008 547.934 390.914 547.387 390.914C546.793 390.914 546.281 391.039 545.852 391.289C545.43 391.531 545.082 391.867 544.809 392.297C544.535 392.719 544.332 393.211 544.199 393.773C544.074 394.328 544.012 394.922 544.012 395.555ZM561.18 402.234C560.297 402.234 559.496 402.086 558.777 401.789C558.066 401.484 557.453 401.059 556.938 400.512C556.43 399.965 556.039 399.316 555.766 398.566C555.492 397.816 555.355 396.996 555.355 396.105V395.613C555.355 394.582 555.508 393.664 555.812 392.859C556.117 392.047 556.531 391.359 557.055 390.797C557.578 390.234 558.172 389.809 558.836 389.52C559.5 389.23 560.188 389.086 560.898 389.086C561.805 389.086 562.586 389.242 563.242 389.555C563.906 389.867 564.449 390.305 564.871 390.867C565.293 391.422 565.605 392.078 565.809 392.836C566.012 393.586 566.113 394.406 566.113 395.297V396.27H556.645V394.5H563.945V394.336C563.914 393.773 563.797 393.227 563.594 392.695C563.398 392.164 563.086 391.727 562.656 391.383C562.227 391.039 561.641 390.867 560.898 390.867C560.406 390.867 559.953 390.973 559.539 391.184C559.125 391.387 558.77 391.691 558.473 392.098C558.176 392.504 557.945 393 557.781 393.586C557.617 394.172 557.535 394.848 557.535 395.613V396.105C557.535 396.707 557.617 397.273 557.781 397.805C557.953 398.328 558.199 398.789 558.52 399.188C558.848 399.586 559.242 399.898 559.703 400.125C560.172 400.352 560.703 400.465 561.297 400.465C562.062 400.465 562.711 400.309 563.242 399.996C563.773 399.684 564.238 399.266 564.637 398.742L565.949 399.785C565.676 400.199 565.328 400.594 564.906 400.969C564.484 401.344 563.965 401.648 563.348 401.883C562.738 402.117 562.016 402.234 561.18 402.234ZM571 384V402H568.82V384H571ZM582.789 389.32V402H580.609V389.32H582.789ZM580.445 385.957C580.445 385.605 580.551 385.309 580.762 385.066C580.98 384.824 581.301 384.703 581.723 384.703C582.137 384.703 582.453 384.824 582.672 385.066C582.898 385.309 583.012 385.605 583.012 385.957C583.012 386.293 582.898 386.582 582.672 386.824C582.453 387.059 582.137 387.176 581.723 387.176C581.301 387.176 580.98 387.059 580.762 386.824C580.551 386.582 580.445 386.293 580.445 385.957ZM594.262 399.539V384H596.441V402H594.449L594.262 399.539ZM585.73 395.801V395.555C585.73 394.586 585.848 393.707 586.082 392.918C586.324 392.121 586.664 391.438 587.102 390.867C587.547 390.297 588.074 389.859 588.684 389.555C589.301 389.242 589.988 389.086 590.746 389.086C591.543 389.086 592.238 389.227 592.832 389.508C593.434 389.781 593.941 390.184 594.355 390.715C594.777 391.238 595.109 391.871 595.352 392.613C595.594 393.355 595.762 394.195 595.855 395.133V396.211C595.77 397.141 595.602 397.977 595.352 398.719C595.109 399.461 594.777 400.094 594.355 400.617C593.941 401.141 593.434 401.543 592.832 401.824C592.23 402.098 591.527 402.234 590.723 402.234C589.98 402.234 589.301 402.074 588.684 401.754C588.074 401.434 587.547 400.984 587.102 400.406C586.664 399.828 586.324 399.148 586.082 398.367C585.848 397.578 585.73 396.723 585.73 395.801ZM587.91 395.555V395.801C587.91 396.434 587.973 397.027 588.098 397.582C588.23 398.137 588.434 398.625 588.707 399.047C588.98 399.469 589.328 399.801 589.75 400.043C590.172 400.277 590.676 400.395 591.262 400.395C591.98 400.395 592.57 400.242 593.031 399.938C593.5 399.633 593.875 399.23 594.156 398.73C594.438 398.23 594.656 397.688 594.812 397.102V394.277C594.719 393.848 594.582 393.434 594.402 393.035C594.23 392.629 594.004 392.27 593.723 391.957C593.449 391.637 593.109 391.383 592.703 391.195C592.305 391.008 591.832 390.914 591.285 390.914C590.691 390.914 590.18 391.039 589.75 391.289C589.328 391.531 588.98 391.867 588.707 392.297C588.434 392.719 588.23 393.211 588.098 393.773C587.973 394.328 587.91 394.922 587.91 395.555ZM611.078 389.32V390.984H604.223V389.32H611.078ZM606.543 386.238H608.711V398.859C608.711 399.289 608.777 399.613 608.91 399.832C609.043 400.051 609.215 400.195 609.426 400.266C609.637 400.336 609.863 400.371 610.105 400.371C610.285 400.371 610.473 400.355 610.668 400.324C610.871 400.285 611.023 400.254 611.125 400.23L611.137 402C610.965 402.055 610.738 402.105 610.457 402.152C610.184 402.207 609.852 402.234 609.461 402.234C608.93 402.234 608.441 402.129 607.996 401.918C607.551 401.707 607.195 401.355 606.93 400.863C606.672 400.363 606.543 399.691 606.543 398.848V386.238ZM612.812 395.801V395.531C612.812 394.617 612.945 393.77 613.211 392.988C613.477 392.199 613.859 391.516 614.359 390.938C614.859 390.352 615.465 389.898 616.176 389.578C616.887 389.25 617.684 389.086 618.566 389.086C619.457 389.086 620.258 389.25 620.969 389.578C621.688 389.898 622.297 390.352 622.797 390.938C623.305 391.516 623.691 392.199 623.957 392.988C624.223 393.77 624.355 394.617 624.355 395.531V395.801C624.355 396.715 624.223 397.562 623.957 398.344C623.691 399.125 623.305 399.809 622.797 400.395C622.297 400.973 621.691 401.426 620.98 401.754C620.277 402.074 619.48 402.234 618.59 402.234C617.699 402.234 616.898 402.074 616.188 401.754C615.477 401.426 614.867 400.973 614.359 400.395C613.859 399.809 613.477 399.125 613.211 398.344C612.945 397.562 612.812 396.715 612.812 395.801ZM614.98 395.531V395.801C614.98 396.434 615.055 397.031 615.203 397.594C615.352 398.148 615.574 398.641 615.871 399.07C616.176 399.5 616.555 399.84 617.008 400.09C617.461 400.332 617.988 400.453 618.59 400.453C619.184 400.453 619.703 400.332 620.148 400.09C620.602 399.84 620.977 399.5 621.273 399.07C621.57 398.641 621.793 398.148 621.941 397.594C622.098 397.031 622.176 396.434 622.176 395.801V395.531C622.176 394.906 622.098 394.316 621.941 393.762C621.793 393.199 621.566 392.703 621.262 392.273C620.965 391.836 620.59 391.492 620.137 391.242C619.691 390.992 619.168 390.867 618.566 390.867C617.973 390.867 617.449 390.992 616.996 391.242C616.551 391.492 616.176 391.836 615.871 392.273C615.574 392.703 615.352 393.199 615.203 393.762C615.055 394.316 614.98 394.906 614.98 395.531ZM640.41 398.637C640.41 398.324 640.34 398.035 640.199 397.77C640.066 397.496 639.789 397.25 639.367 397.031C638.953 396.805 638.328 396.609 637.492 396.445C636.789 396.297 636.152 396.121 635.582 395.918C635.02 395.715 634.539 395.469 634.141 395.18C633.75 394.891 633.449 394.551 633.238 394.16C633.027 393.77 632.922 393.312 632.922 392.789C632.922 392.289 633.031 391.816 633.25 391.371C633.477 390.926 633.793 390.531 634.199 390.188C634.613 389.844 635.109 389.574 635.688 389.379C636.266 389.184 636.91 389.086 637.621 389.086C638.637 389.086 639.504 389.266 640.223 389.625C640.941 389.984 641.492 390.465 641.875 391.066C642.258 391.66 642.449 392.32 642.449 393.047H640.281C640.281 392.695 640.176 392.355 639.965 392.027C639.762 391.691 639.461 391.414 639.062 391.195C638.672 390.977 638.191 390.867 637.621 390.867C637.02 390.867 636.531 390.961 636.156 391.148C635.789 391.328 635.52 391.559 635.348 391.84C635.184 392.121 635.102 392.418 635.102 392.73C635.102 392.965 635.141 393.176 635.219 393.363C635.305 393.543 635.453 393.711 635.664 393.867C635.875 394.016 636.172 394.156 636.555 394.289C636.938 394.422 637.426 394.555 638.02 394.688C639.059 394.922 639.914 395.203 640.586 395.531C641.258 395.859 641.758 396.262 642.086 396.738C642.414 397.215 642.578 397.793 642.578 398.473C642.578 399.027 642.461 399.535 642.227 399.996C642 400.457 641.668 400.855 641.23 401.191C640.801 401.52 640.285 401.777 639.684 401.965C639.09 402.145 638.422 402.234 637.68 402.234C636.562 402.234 635.617 402.035 634.844 401.637C634.07 401.238 633.484 400.723 633.086 400.09C632.688 399.457 632.488 398.789 632.488 398.086H634.668C634.699 398.68 634.871 399.152 635.184 399.504C635.496 399.848 635.879 400.094 636.332 400.242C636.785 400.383 637.234 400.453 637.68 400.453C638.273 400.453 638.77 400.375 639.168 400.219C639.574 400.062 639.883 399.848 640.094 399.574C640.305 399.301 640.41 398.988 640.41 398.637ZM650.688 402.234C649.805 402.234 649.004 402.086 648.285 401.789C647.574 401.484 646.961 401.059 646.445 400.512C645.938 399.965 645.547 399.316 645.273 398.566C645 397.816 644.863 396.996 644.863 396.105V395.613C644.863 394.582 645.016 393.664 645.32 392.859C645.625 392.047 646.039 391.359 646.562 390.797C647.086 390.234 647.68 389.809 648.344 389.52C649.008 389.23 649.695 389.086 650.406 389.086C651.312 389.086 652.094 389.242 652.75 389.555C653.414 389.867 653.957 390.305 654.379 390.867C654.801 391.422 655.113 392.078 655.316 392.836C655.52 393.586 655.621 394.406 655.621 395.297V396.27H646.152V394.5H653.453V394.336C653.422 393.773 653.305 393.227 653.102 392.695C652.906 392.164 652.594 391.727 652.164 391.383C651.734 391.039 651.148 390.867 650.406 390.867C649.914 390.867 649.461 390.973 649.047 391.184C648.633 391.387 648.277 391.691 647.98 392.098C647.684 392.504 647.453 393 647.289 393.586C647.125 394.172 647.043 394.848 647.043 395.613V396.105C647.043 396.707 647.125 397.273 647.289 397.805C647.461 398.328 647.707 398.789 648.027 399.188C648.355 399.586 648.75 399.898 649.211 400.125C649.68 400.352 650.211 400.465 650.805 400.465C651.57 400.465 652.219 400.309 652.75 399.996C653.281 399.684 653.746 399.266 654.145 398.742L655.457 399.785C655.184 400.199 654.836 400.594 654.414 400.969C653.992 401.344 653.473 401.648 652.855 401.883C652.246 402.117 651.523 402.234 650.688 402.234ZM663.414 402.234C662.531 402.234 661.73 402.086 661.012 401.789C660.301 401.484 659.688 401.059 659.172 400.512C658.664 399.965 658.273 399.316 658 398.566C657.727 397.816 657.59 396.996 657.59 396.105V395.613C657.59 394.582 657.742 393.664 658.047 392.859C658.352 392.047 658.766 391.359 659.289 390.797C659.812 390.234 660.406 389.809 661.07 389.52C661.734 389.23 662.422 389.086 663.133 389.086C664.039 389.086 664.82 389.242 665.477 389.555C666.141 389.867 666.684 390.305 667.105 390.867C667.527 391.422 667.84 392.078 668.043 392.836C668.246 393.586 668.348 394.406 668.348 395.297V396.27H658.879V394.5H666.18V394.336C666.148 393.773 666.031 393.227 665.828 392.695C665.633 392.164 665.32 391.727 664.891 391.383C664.461 391.039 663.875 390.867 663.133 390.867C662.641 390.867 662.188 390.973 661.773 391.184C661.359 391.387 661.004 391.691 660.707 392.098C660.41 392.504 660.18 393 660.016 393.586C659.852 394.172 659.77 394.848 659.77 395.613V396.105C659.77 396.707 659.852 397.273 660.016 397.805C660.188 398.328 660.434 398.789 660.754 399.188C661.082 399.586 661.477 399.898 661.938 400.125C662.406 400.352 662.938 400.465 663.531 400.465C664.297 400.465 664.945 400.309 665.477 399.996C666.008 399.684 666.473 399.266 666.871 398.742L668.184 399.785C667.91 400.199 667.562 400.594 667.141 400.969C666.719 401.344 666.199 401.648 665.582 401.883C664.973 402.117 664.25 402.234 663.414 402.234ZM679.762 392.402H681.309C682.066 392.402 682.691 392.277 683.184 392.027C683.684 391.77 684.055 391.422 684.297 390.984C684.547 390.539 684.672 390.039 684.672 389.484C684.672 388.828 684.562 388.277 684.344 387.832C684.125 387.387 683.797 387.051 683.359 386.824C682.922 386.598 682.367 386.484 681.695 386.484C681.086 386.484 680.547 386.605 680.078 386.848C679.617 387.082 679.254 387.418 678.988 387.855C678.73 388.293 678.602 388.809 678.602 389.402H676.434C676.434 388.535 676.652 387.746 677.09 387.035C677.527 386.324 678.141 385.758 678.93 385.336C679.727 384.914 680.648 384.703 681.695 384.703C682.727 384.703 683.629 384.887 684.402 385.254C685.176 385.613 685.777 386.152 686.207 386.871C686.637 387.582 686.852 388.469 686.852 389.531C686.852 389.961 686.75 390.422 686.547 390.914C686.352 391.398 686.043 391.852 685.621 392.273C685.207 392.695 684.668 393.043 684.004 393.316C683.34 393.582 682.543 393.715 681.613 393.715H679.762V392.402ZM679.762 394.184V392.883H681.613C682.699 392.883 683.598 393.012 684.309 393.27C685.02 393.527 685.578 393.871 685.984 394.301C686.398 394.73 686.688 395.203 686.852 395.719C687.023 396.227 687.109 396.734 687.109 397.242C687.109 398.039 686.973 398.746 686.699 399.363C686.434 399.98 686.055 400.504 685.562 400.934C685.078 401.363 684.508 401.688 683.852 401.906C683.195 402.125 682.48 402.234 681.707 402.234C680.965 402.234 680.266 402.129 679.609 401.918C678.961 401.707 678.387 401.402 677.887 401.004C677.387 400.598 676.996 400.102 676.715 399.516C676.434 398.922 676.293 398.246 676.293 397.488H678.461C678.461 398.082 678.59 398.602 678.848 399.047C679.113 399.492 679.488 399.84 679.973 400.09C680.465 400.332 681.043 400.453 681.707 400.453C682.371 400.453 682.941 400.34 683.418 400.113C683.902 399.879 684.273 399.527 684.531 399.059C684.797 398.59 684.93 398 684.93 397.289C684.93 396.578 684.781 395.996 684.484 395.543C684.188 395.082 683.766 394.742 683.219 394.523C682.68 394.297 682.043 394.184 681.309 394.184H679.762ZM698.324 399.539V384H700.504V402H698.512L698.324 399.539ZM689.793 395.801V395.555C689.793 394.586 689.91 393.707 690.145 392.918C690.387 392.121 690.727 391.438 691.164 390.867C691.609 390.297 692.137 389.859 692.746 389.555C693.363 389.242 694.051 389.086 694.809 389.086C695.605 389.086 696.301 389.227 696.895 389.508C697.496 389.781 698.004 390.184 698.418 390.715C698.84 391.238 699.172 391.871 699.414 392.613C699.656 393.355 699.824 394.195 699.918 395.133V396.211C699.832 397.141 699.664 397.977 699.414 398.719C699.172 399.461 698.84 400.094 698.418 400.617C698.004 401.141 697.496 401.543 696.895 401.824C696.293 402.098 695.59 402.234 694.785 402.234C694.043 402.234 693.363 402.074 692.746 401.754C692.137 401.434 691.609 400.984 691.164 400.406C690.727 399.828 690.387 399.148 690.145 398.367C689.91 397.578 689.793 396.723 689.793 395.801ZM691.973 395.555V395.801C691.973 396.434 692.035 397.027 692.16 397.582C692.293 398.137 692.496 398.625 692.77 399.047C693.043 399.469 693.391 399.801 693.812 400.043C694.234 400.277 694.738 400.395 695.324 400.395C696.043 400.395 696.633 400.242 697.094 399.938C697.562 399.633 697.938 399.23 698.219 398.73C698.5 398.23 698.719 397.688 698.875 397.102V394.277C698.781 393.848 698.645 393.434 698.465 393.035C698.293 392.629 698.066 392.27 697.785 391.957C697.512 391.637 697.172 391.383 696.766 391.195C696.367 391.008 695.895 390.914 695.348 390.914C694.754 390.914 694.242 391.039 693.812 391.289C693.391 391.531 693.043 391.867 692.77 392.297C692.496 392.719 692.293 393.211 692.16 393.773C692.035 394.328 691.973 394.922 691.973 395.555ZM712 391.758V406.875H709.82V389.32H711.812L712 391.758ZM720.543 395.555V395.801C720.543 396.723 720.434 397.578 720.215 398.367C719.996 399.148 719.676 399.828 719.254 400.406C718.84 400.984 718.328 401.434 717.719 401.754C717.109 402.074 716.41 402.234 715.621 402.234C714.816 402.234 714.105 402.102 713.488 401.836C712.871 401.57 712.348 401.184 711.918 400.676C711.488 400.168 711.145 399.559 710.887 398.848C710.637 398.137 710.465 397.336 710.371 396.445V395.133C710.465 394.195 710.641 393.355 710.898 392.613C711.156 391.871 711.496 391.238 711.918 390.715C712.348 390.184 712.867 389.781 713.477 389.508C714.086 389.227 714.789 389.086 715.586 389.086C716.383 389.086 717.09 389.242 717.707 389.555C718.324 389.859 718.844 390.297 719.266 390.867C719.688 391.438 720.004 392.121 720.215 392.918C720.434 393.707 720.543 394.586 720.543 395.555ZM718.363 395.801V395.555C718.363 394.922 718.297 394.328 718.164 393.773C718.031 393.211 717.824 392.719 717.543 392.297C717.27 391.867 716.918 391.531 716.488 391.289C716.059 391.039 715.547 390.914 714.953 390.914C714.406 390.914 713.93 391.008 713.523 391.195C713.125 391.383 712.785 391.637 712.504 391.957C712.223 392.27 711.992 392.629 711.812 393.035C711.641 393.434 711.512 393.848 711.426 394.277V397.312C711.582 397.859 711.801 398.375 712.082 398.859C712.363 399.336 712.738 399.723 713.207 400.02C713.676 400.309 714.266 400.453 714.977 400.453C715.562 400.453 716.066 400.332 716.488 400.09C716.918 399.84 717.27 399.5 717.543 399.07C717.824 398.641 718.031 398.148 718.164 397.594C718.297 397.031 718.363 396.434 718.363 395.801ZM725.477 391.312V402H723.309V389.32H725.418L725.477 391.312ZM729.438 389.25L729.426 391.266C729.246 391.227 729.074 391.203 728.91 391.195C728.754 391.18 728.574 391.172 728.371 391.172C727.871 391.172 727.43 391.25 727.047 391.406C726.664 391.562 726.34 391.781 726.074 392.062C725.809 392.344 725.598 392.68 725.441 393.07C725.293 393.453 725.195 393.875 725.148 394.336L724.539 394.688C724.539 393.922 724.613 393.203 724.762 392.531C724.918 391.859 725.156 391.266 725.477 390.75C725.797 390.227 726.203 389.82 726.695 389.531C727.195 389.234 727.789 389.086 728.477 389.086C728.633 389.086 728.812 389.105 729.016 389.145C729.219 389.176 729.359 389.211 729.438 389.25ZM736.469 402.234C735.586 402.234 734.785 402.086 734.066 401.789C733.355 401.484 732.742 401.059 732.227 400.512C731.719 399.965 731.328 399.316 731.055 398.566C730.781 397.816 730.645 396.996 730.645 396.105V395.613C730.645 394.582 730.797 393.664 731.102 392.859C731.406 392.047 731.82 391.359 732.344 390.797C732.867 390.234 733.461 389.809 734.125 389.52C734.789 389.23 735.477 389.086 736.188 389.086C737.094 389.086 737.875 389.242 738.531 389.555C739.195 389.867 739.738 390.305 740.16 390.867C740.582 391.422 740.895 392.078 741.098 392.836C741.301 393.586 741.402 394.406 741.402 395.297V396.27H731.934V394.5H739.234V394.336C739.203 393.773 739.086 393.227 738.883 392.695C738.688 392.164 738.375 391.727 737.945 391.383C737.516 391.039 736.93 390.867 736.188 390.867C735.695 390.867 735.242 390.973 734.828 391.184C734.414 391.387 734.059 391.691 733.762 392.098C733.465 392.504 733.234 393 733.07 393.586C732.906 394.172 732.824 394.848 732.824 395.613V396.105C732.824 396.707 732.906 397.273 733.07 397.805C733.242 398.328 733.488 398.789 733.809 399.188C734.137 399.586 734.531 399.898 734.992 400.125C735.461 400.352 735.992 400.465 736.586 400.465C737.352 400.465 738 400.309 738.531 399.996C739.062 399.684 739.527 399.266 739.926 398.742L741.238 399.785C740.965 400.199 740.617 400.594 740.195 400.969C739.773 401.344 739.254 401.648 738.637 401.883C738.027 402.117 737.305 402.234 736.469 402.234ZM747.625 400.043L751.094 389.32H753.309L748.75 402H747.297L747.625 400.043ZM744.73 389.32L748.305 400.102L748.551 402H747.098L742.504 389.32H744.73ZM757.75 389.32V402H755.57V389.32H757.75ZM755.406 385.957C755.406 385.605 755.512 385.309 755.723 385.066C755.941 384.824 756.262 384.703 756.684 384.703C757.098 384.703 757.414 384.824 757.633 385.066C757.859 385.309 757.973 385.605 757.973 385.957C757.973 386.293 757.859 386.582 757.633 386.824C757.414 387.059 757.098 387.176 756.684 387.176C756.262 387.176 755.941 387.059 755.723 386.824C755.512 386.582 755.406 386.293 755.406 385.957ZM766.492 402.234C765.609 402.234 764.809 402.086 764.09 401.789C763.379 401.484 762.766 401.059 762.25 400.512C761.742 399.965 761.352 399.316 761.078 398.566C760.805 397.816 760.668 396.996 760.668 396.105V395.613C760.668 394.582 760.82 393.664 761.125 392.859C761.43 392.047 761.844 391.359 762.367 390.797C762.891 390.234 763.484 389.809 764.148 389.52C764.812 389.23 765.5 389.086 766.211 389.086C767.117 389.086 767.898 389.242 768.555 389.555C769.219 389.867 769.762 390.305 770.184 390.867C770.605 391.422 770.918 392.078 771.121 392.836C771.324 393.586 771.426 394.406 771.426 395.297V396.27H761.957V394.5H769.258V394.336C769.227 393.773 769.109 393.227 768.906 392.695C768.711 392.164 768.398 391.727 767.969 391.383C767.539 391.039 766.953 390.867 766.211 390.867C765.719 390.867 765.266 390.973 764.852 391.184C764.438 391.387 764.082 391.691 763.785 392.098C763.488 392.504 763.258 393 763.094 393.586C762.93 394.172 762.848 394.848 762.848 395.613V396.105C762.848 396.707 762.93 397.273 763.094 397.805C763.266 398.328 763.512 398.789 763.832 399.188C764.16 399.586 764.555 399.898 765.016 400.125C765.484 400.352 766.016 400.465 766.609 400.465C767.375 400.465 768.023 400.309 768.555 399.996C769.086 399.684 769.551 399.266 769.949 398.742L771.262 399.785C770.988 400.199 770.641 400.594 770.219 400.969C769.797 401.344 769.277 401.648 768.66 401.883C768.051 402.117 767.328 402.234 766.492 402.234ZM777.168 399.75L780.426 389.32H781.855L781.574 391.395L778.258 402H776.863L777.168 399.75ZM774.977 389.32L777.754 399.867L777.953 402H776.488L772.809 389.32H774.977ZM784.973 399.785L787.621 389.32H789.777L786.098 402H784.645L784.973 399.785ZM782.172 389.32L785.359 399.574L785.723 402H784.34L780.93 391.371L780.648 389.32H782.172Z" fill="#A0ADB4"/>
</svg>