<svg width="10" height="9" viewBox="0 0 10 9" fill="none" xmlns="http://www.w3.org/2000/svg">
<g clip-path="url(#clip0_3_2)">
<path d="M0.602677 8.99996C0.436253 8.99996 0.301339 8.87854 0.301339 8.72877V6.66401C0.301339 6.44789 0.496 6.27271 0.736123 6.27271H8.90673C9.14686 6.27271 9.3415 6.44789 9.3415 6.66401V8.72877C9.3415 8.87854 9.20659 8.99996 9.04018 8.99996C8.87373 8.99996 8.73882 8.87854 8.73882 8.72877V7.20945C8.73882 6.99333 8.54418 6.81815 8.30405 6.81815H1.3388C1.09868 6.81815 0.904018 6.99333 0.904018 7.20945V8.72877C0.904018 8.87854 0.769104 8.99996 0.602677 8.99996ZM0.434782 5.3705C0.194659 5.3705 0 5.19533 0 4.97921V4.67092C0 4.4548 0.194659 4.27962 0.434783 4.27962H0.770573C1.0107 4.27962 1.20535 4.4548 1.20535 4.67092V4.97921C1.20535 5.19533 1.0107 5.3705 0.770573 5.3705H0.434782ZM8.87227 5.3705C8.63214 5.3705 8.4375 5.19533 8.4375 4.97921V4.67092C8.4375 4.4548 8.63214 4.27962 8.87227 4.27962H9.20805C9.44818 4.27962 9.64286 4.4548 9.64286 4.67092V4.97921C9.64286 5.19533 9.44818 5.3705 9.20805 5.3705H8.87227Z" fill="#7F3DE6"/>
<path d="M2.27228 0.391304V4.91596C2.27228 5.13209 2.46694 5.30726 2.70707 5.30726H6.93614C7.17627 5.30726 7.37096 5.13209 7.37096 4.91596V0.391304C7.37096 0.175193 7.17627 0 6.93614 0H2.70707C2.46694 0 2.27228 0.175193 2.27228 0.391304Z" fill="#CFB1FF"/>
</g>
<defs>
<clipPath id="clip0_3_2">
<rect width="10" height="9" fill="white"/>
</clipPath>
</defs>
</svg>