<svg width="23" height="23" viewBox="0 0 23 23" fill="none" xmlns="http://www.w3.org/2000/svg">
<path d="M21.9611 1.49309V15.2996C21.9611 15.3099 21.9527 15.3183 21.9423 15.3183H8.13585C8.1255 15.3183 8.11711 15.3099 8.11711 15.2996V1.49309C8.11711 1.48274 8.1255 1.47435 8.13585 1.47435H15.0391H21.9423C21.9527 1.47435 21.9611 1.48274 21.9611 1.49309Z" stroke="#008B7D" stroke-width="0.948697"/>
<path d="M3.47237 0.742035C3.32987 0.599539 3.09884 0.599539 2.95634 0.742035L0.634239 3.06414C0.491743 3.20664 0.491743 3.43767 0.634239 3.58016C0.776735 3.72266 1.00777 3.72266 1.15026 3.58016L3.21436 1.51607L5.27845 3.58016C5.42094 3.72266 5.65198 3.72266 5.79447 3.58016C5.93697 3.43767 5.93697 3.20664 5.79447 3.06414L3.47237 0.742035ZM3.57924 7.88035L3.57924 1.00005L2.84947 1.00005L2.84947 7.88035L3.57924 7.88035Z" fill="#008B7D"/>
<path d="M2.95634 16.0507C3.09884 16.1932 3.32987 16.1932 3.47237 16.0507L5.79447 13.7286C5.93697 13.5861 5.93697 13.3551 5.79447 13.2126C5.65198 13.0701 5.42094 13.0701 5.27845 13.2126L3.21436 15.2767L1.15026 13.2126C1.00777 13.0701 0.776735 13.0701 0.634239 13.2126C0.491743 13.3551 0.491743 13.5861 0.634239 13.7286L2.95634 16.0507ZM2.84947 7.88035L2.84947 15.7927L3.57924 15.7927L3.57924 7.88035L2.84947 7.88035Z" fill="#008B7D"/>
<path d="M7.33977 19.7163C7.19728 19.8588 7.19728 20.0899 7.33977 20.2324L9.66188 22.5545C9.80437 22.697 10.0354 22.697 10.1779 22.5545C10.3204 22.412 10.3204 22.1809 10.1779 22.0384L8.11381 19.9743L10.1779 17.9102C10.3204 17.7678 10.3204 17.5367 10.1779 17.3942C10.0354 17.2517 9.80437 17.2517 9.66188 17.3942L7.33977 19.7163ZM14.4781 19.6095L7.59778 19.6095L7.59779 20.3392L14.4781 20.3392L14.4781 19.6095Z" fill="#008B7D"/>
<path d="M22.6484 20.2324C22.7909 20.0899 22.7909 19.8588 22.6484 19.7163L20.3263 17.3942C20.1838 17.2517 19.9528 17.2517 19.8103 17.3942C19.6678 17.5367 19.6678 17.7678 19.8103 17.9102L21.8744 19.9743L19.8103 22.0384C19.6678 22.1809 19.6678 22.412 19.8103 22.5545C19.9528 22.697 20.1838 22.697 20.3263 22.5545L22.6484 20.2324ZM14.4781 20.3392L22.3904 20.3392L22.3904 19.6095L14.4781 19.6095L14.4781 20.3392Z" fill="#008B7D"/>
</svg>